<svg width="34" height="34" viewBox="0 0 34 34" fill="none" xmlns="http://www.w3.org/2000/svg">
<path d="M18.7356 13.2328C18.5184 13.2328 18.3419 13.0565 18.3419 12.839V12.1699C18.3419 11.9527 18.5182 11.7761 18.7356 11.7761C18.9528 11.7761 19.1294 11.9524 19.1294 12.1699V12.839C19.1294 13.0565 18.9528 13.2328 18.7356 13.2328Z" fill="#103E13"/>
<path d="M17.0802 13.2328C16.863 13.2328 16.6865 13.0565 16.6865 12.839V12.1699C16.6865 11.9527 16.8628 11.7761 17.0802 11.7761C17.2974 11.7761 17.474 11.9524 17.474 12.1699V12.839C17.4737 13.0565 17.2977 13.2328 17.0802 13.2328Z" fill="#103E13"/>
<path d="M15.4249 13.2328C15.2078 13.2328 15.0312 13.0565 15.0312 12.839V12.1699C15.0312 11.9527 15.2075 11.7761 15.4249 11.7761C15.6421 11.7761 15.8187 11.9524 15.8187 12.1699V12.839C15.8187 13.0565 15.6424 13.2328 15.4249 13.2328Z" fill="#103E13"/>
<path d="M18.7356 15.9693C18.5184 15.9693 18.3419 15.793 18.3419 15.5756V14.9067C18.3419 14.6895 18.5182 14.5129 18.7356 14.5129C18.9528 14.5129 19.1294 14.6892 19.1294 14.9067V15.5756C19.1294 15.793 18.9528 15.9693 18.7356 15.9693Z" fill="#103E13"/>
<path d="M17.0802 15.9693C16.863 15.9693 16.6865 15.793 16.6865 15.5756V14.9067C16.6865 14.6895 16.8628 14.5129 17.0802 14.5129C17.2974 14.5129 17.474 14.6892 17.474 14.9067V15.5756C17.4737 15.793 17.2977 15.9693 17.0802 15.9693Z" fill="#103E13"/>
<path d="M15.4249 15.9693C15.2078 15.9693 15.0312 15.793 15.0312 15.5756V14.9067C15.0312 14.6895 15.2075 14.5129 15.4249 14.5129C15.6421 14.5129 15.8187 14.6892 15.8187 14.9067V15.5756C15.8187 15.793 15.6424 15.9693 15.4249 15.9693Z" fill="#103E13"/>
<path d="M18.7356 18.7057C18.5184 18.7057 18.3419 18.5294 18.3419 18.3119V17.6428C18.3419 17.4256 18.5182 17.249 18.7356 17.249C18.9528 17.249 19.1294 17.4253 19.1294 17.6428V18.3119C19.1294 18.5294 18.9528 18.7057 18.7356 18.7057Z" fill="#103E13"/>
<path d="M17.0802 18.7057C16.863 18.7057 16.6865 18.5294 16.6865 18.3119V17.6428C16.6865 17.4256 16.8628 17.249 17.0802 17.249C17.2974 17.249 17.474 17.4253 17.474 17.6428V18.3119C17.4737 18.5294 17.2977 18.7057 17.0802 18.7057Z" fill="#103E13"/>
<path d="M15.4249 18.7057C15.2078 18.7057 15.0312 18.5294 15.0312 18.3119V17.6428C15.0312 17.4256 15.2075 17.249 15.4249 17.249C15.6421 17.249 15.8187 17.4253 15.8187 17.6428V18.3119C15.8187 18.5294 15.6424 18.7057 15.4249 18.7057Z" fill="#103E13"/>
<path d="M18.7356 21.4415C18.5184 21.4415 18.3419 21.2652 18.3419 21.0478V20.3786C18.3419 20.1614 18.5182 19.9849 18.7356 19.9849C18.9528 19.9849 19.1294 20.1611 19.1294 20.3786V21.0478C19.1294 21.2652 18.9528 21.4415 18.7356 21.4415Z" fill="#103E13"/>
<path d="M17.0802 21.4415C16.863 21.4415 16.6865 21.2652 16.6865 21.0478V20.3786C16.6865 20.1614 16.8628 19.9849 17.0802 19.9849C17.2974 19.9849 17.474 20.1611 17.474 20.3786V21.0478C17.4737 21.2652 17.2977 21.4415 17.0802 21.4415Z" fill="#103E13"/>
<path d="M15.4249 21.4415C15.2078 21.4415 15.0312 21.2652 15.0312 21.0478V20.3786C15.0312 20.1614 15.2075 19.9849 15.4249 19.9849C15.6421 19.9849 15.8187 20.1611 15.8187 20.3786V21.0478C15.8187 21.2652 15.6424 21.4415 15.4249 21.4415Z" fill="#103E13"/>
<path d="M18.7356 24.178C18.5184 24.178 18.3419 24.0018 18.3419 23.7843V23.1154C18.3419 22.8982 18.5182 22.7217 18.7356 22.7217C18.9528 22.7217 19.1294 22.898 19.1294 23.1154V23.7843C19.1294 24.0015 18.9528 24.178 18.7356 24.178Z" fill="#103E13"/>
<path d="M17.0802 24.178C16.863 24.178 16.6865 24.0018 16.6865 23.7843V23.1154C16.6865 22.8982 16.8628 22.7217 17.0802 22.7217C17.2974 22.7217 17.474 22.898 17.474 23.1154V23.7843C17.4737 24.0015 17.2977 24.178 17.0802 24.178Z" fill="#103E13"/>
<path d="M15.4249 24.178C15.2078 24.178 15.0312 24.0018 15.0312 23.7843L15.0315 23.1154C15.0315 22.8982 15.2077 22.7217 15.4252 22.7217C15.6424 22.7217 15.819 22.898 15.819 23.1154V23.7843C15.8187 24.0015 15.6424 24.178 15.4249 24.178Z" fill="#103E13"/>
<path d="M4.17674 26.9011C4.17674 27.1183 4.35302 27.2949 4.57049 27.2949H28.5485C28.7657 27.2949 28.9423 27.1186 28.9423 26.9011C28.9423 26.6839 28.766 26.5074 28.5485 26.5074H27.8206V15.2023C27.8206 14.9851 27.6444 14.8085 27.4269 14.8085L20.9982 14.8088V6.65846C20.9982 6.52062 20.9263 6.39322 20.8087 6.32182C20.6915 6.25016 20.5449 6.24577 20.4229 6.30919L13.114 10.1146C12.9836 10.1824 12.9023 10.317 12.9023 10.4639V17.583H5.82879C5.6116 17.583 5.43504 17.7593 5.43504 17.9768V26.5074H4.56961C4.35242 26.5072 4.17641 26.6834 4.17641 26.9009L4.17674 26.9011ZM20.9983 20.7723H27.0335V26.5077L20.9983 26.5074V20.7723ZM20.9983 18.0361H27.0335V19.9851L20.9983 19.9848V18.0361ZM20.9983 15.5959H27.0335V17.2492H20.9983V15.5959ZM13.6894 10.7029L20.2106 7.30749V26.5071H13.6894V10.7029ZM8.16898 23.3625C8.16898 22.5454 8.81643 21.8804 9.61242 21.8804C10.4084 21.8804 11.0562 22.5451 11.0562 23.3625V26.5076H8.16898V23.3625ZM6.22252 18.3704H12.9022V26.5074H11.8436V23.3624C11.8436 22.1111 10.8431 21.093 9.61242 21.093C8.38231 21.093 7.38177 22.1109 7.38177 23.3624V26.5074H6.22252V18.3704Z" fill="#103E13"/>
</svg>
