<svg width="34" height="34" viewBox="0 0 34 34" fill="none" xmlns="http://www.w3.org/2000/svg">
<g clip-path="url(#clip0_1302_1139)">
<path d="M29.5395 8.13736C29.5395 8.46172 29.8057 8.72466 30.134 8.72466H30.7286C31.057 8.72466 31.3232 8.46172 31.3232 8.13736C31.3232 7.813 31.057 7.55005 30.7286 7.55005H30.134C29.8057 7.55005 29.5395 7.813 29.5395 8.13736Z" fill="#212326"/>
<path d="M12.2973 26.3439H15.1855L14.3447 25.5133C14.1217 25.2931 13.8192 25.1693 13.5039 25.1693H12.2973C7.70012 25.1693 3.97342 21.4881 3.97342 16.947C3.97342 12.4059 7.70012 8.72467 12.2973 8.72467H21.8102C26.4073 8.72467 30.134 12.4059 30.134 16.947C30.134 21.4881 26.4073 25.1693 21.8102 25.1693H18.2516C17.7785 25.1693 17.3248 24.9837 16.9903 24.6533L16.0053 23.6802C15.4478 23.1295 14.6916 22.8201 13.9031 22.8201H12.2973C9.01357 22.8201 6.35166 20.1906 6.35166 16.947C6.35166 13.7034 9.01357 11.0739 12.2973 11.0739H21.8102C25.0939 11.0739 27.7558 13.7034 27.7558 16.947C27.7558 20.1906 25.0939 22.8201 21.8102 22.8201H19.5252C19.0522 22.8201 18.5985 22.6344 18.264 22.304L17.2789 21.3309C16.7213 20.7802 15.9652 20.4708 15.1768 20.4708H12.2973C10.3271 20.4708 8.7299 18.8931 8.7299 16.947C8.7299 15.0008 10.3271 13.4231 12.2973 13.4231H21.8102C23.7804 13.4231 25.3776 15.0008 25.3776 16.947C25.3776 18.8694 23.8191 20.4323 21.8821 20.4701L21.8817 20.4708H21.0116C20.5386 20.4708 20.0849 20.2852 19.7504 19.9548L18.7652 18.9817C18.3078 18.5298 17.7166 18.2404 17.0836 18.1511L17.0537 18.1216H12.2973C11.6405 18.1216 11.1081 17.5957 11.1081 16.947C11.1081 16.2983 11.6405 15.7724 12.2973 15.7724H21.8102C22.4669 15.7724 22.9993 16.2983 22.9993 16.947C22.9993 17.5957 22.4669 18.1216 21.8102 18.1216H19.432L20.2728 18.9522C20.4958 19.1725 20.7983 19.2962 21.1136 19.2962H21.8102C23.1237 19.2962 24.1884 18.2444 24.1884 16.947C24.1884 15.6496 23.1237 14.5978 21.8102 14.5978H12.2973C10.9838 14.5978 9.91901 15.6496 9.91901 16.947C9.91901 18.2444 10.9838 19.2962 12.2973 19.2962H16.6632C17.1363 19.2962 17.5899 19.4819 17.9244 19.8123L18.9096 20.7854C19.4671 21.3361 20.2232 21.6455 21.0116 21.6455H22.1075V21.6364C24.5959 21.4849 26.5667 19.4432 26.5667 16.947C26.5667 14.3521 24.4371 12.2485 21.8102 12.2485H12.2973C9.67035 12.2485 7.54078 14.3521 7.54078 16.947C7.54078 19.5419 9.67035 21.6455 12.2973 21.6455H15.1768C15.6499 21.6455 16.1035 21.8311 16.438 22.1615L17.4232 23.1346C17.9807 23.6853 18.7368 23.9947 19.5252 23.9947H21.8102C25.7506 23.9947 28.9449 20.8393 28.9449 16.947C28.9449 13.0546 25.7506 9.89928 21.8102 9.89928H12.2973C8.35684 9.89928 5.16254 13.0546 5.16254 16.947C5.16254 20.8393 8.35684 23.9947 12.2973 23.9947H13.9031C14.3762 23.9947 14.8299 24.1803 15.1644 24.5107L16.1495 25.4838C16.707 26.0345 17.4632 26.3439 18.2516 26.3439H21.8102C27.0641 26.3439 31.3232 22.1368 31.3232 16.947C31.3232 11.7572 27.0641 7.55005 21.8102 7.55005L12.2973 7.55005C7.04339 7.55005 2.7843 11.7572 2.7843 16.947C2.7843 22.1368 7.0434 26.3439 12.2973 26.3439Z" fill="#212326"/>
</g>
<defs>
<clipPath id="clip0_1302_1139">
<rect width="28.5388" height="18.7939" fill="white" transform="translate(2.7843 7.55005)"/>
</clipPath>
</defs>
</svg>
