<svg width="37" height="34" viewBox="0 0 37 34" fill="none" xmlns="http://www.w3.org/2000/svg">
<g clip-path="url(#clip0_1302_1143)">
<path d="M8.59168 9.63843C7.17815 9.63843 5.82253 10.1999 4.82302 11.1995L1.56103 14.4614C0.561519 15.461 0 16.8166 0 18.2301C0 21.1736 2.38619 23.5598 5.32971 23.5598C6.74324 23.5598 8.09886 22.9983 9.09837 21.9988L11.3547 19.7424C11.3547 19.7424 11.3547 19.7425 11.3547 19.7424L17.9289 13.1682C18.4063 12.6909 19.0537 12.4227 19.7288 12.4227C20.859 12.4227 21.8172 13.1593 22.1494 14.1787L24.2242 12.1039C23.2777 10.6214 21.6181 9.63843 19.7288 9.63843C18.3153 9.63843 16.9596 10.1999 15.9601 11.1995L7.12961 20.03C6.65224 20.5074 6.00481 20.7755 5.32971 20.7755C3.9239 20.7755 2.78428 19.6359 2.78428 18.2301C2.78428 17.555 3.05245 16.9076 3.52981 16.4302L6.79178 13.1682C7.26915 12.6909 7.91658 12.4227 8.59168 12.4227C9.72196 12.4227 10.6801 13.1594 11.0123 14.1788L13.0872 12.1039C12.1407 10.6215 10.481 9.63843 8.59168 9.63843Z" fill="#394149"/>
<path d="M18.2667 20.03C17.7894 20.5074 17.1419 20.7755 16.4668 20.7755C15.3367 20.7755 14.3786 20.0391 14.0463 19.0199L11.9716 21.0947C12.9181 22.5769 14.5777 23.5598 16.4668 23.5598C17.8804 23.5598 19.236 22.9983 20.2355 21.9988L29.066 13.1682C29.5434 12.6909 30.1908 12.4227 30.8659 12.4227C32.2717 12.4227 33.4113 13.5623 33.4113 14.9681C33.4113 15.6432 33.1432 16.2907 32.6658 16.768L29.4038 20.03C28.9265 20.5074 28.279 20.7755 27.6039 20.7755C26.4737 20.7755 25.5156 20.039 25.1833 19.0197L23.1086 21.0945C24.0551 22.5769 25.7147 23.5598 27.6039 23.5598C29.0175 23.5598 30.3731 22.9983 31.3726 21.9988L34.6346 18.7368C35.6341 17.7373 36.1956 16.3817 36.1956 14.9681C36.1956 12.0246 33.8094 9.63843 30.8659 9.63843C29.4524 9.63843 28.0967 10.1999 27.0972 11.1995L18.2667 20.03Z" fill="#394149"/>
</g>
<defs>
<clipPath id="clip0_1302_1143">
<rect width="36.1956" height="13.9214" fill="white" transform="translate(0 9.63843)"/>
</clipPath>
</defs>
</svg>
