<svg width="34" height="34" viewBox="0 0 34 34" fill="none" xmlns="http://www.w3.org/2000/svg">
<g clip-path="url(#clip0_1302_1113)">
<path fill-rule="evenodd" clip-rule="evenodd" d="M9.74504 2.78418C13.5893 2.78418 16.7057 5.90059 16.7057 9.74487V2.78418H23.6664C27.5107 2.78418 30.6271 5.90059 30.6271 9.74487C30.6271 13.5891 27.5107 16.7056 23.6664 16.7056C27.5107 16.7056 30.6271 19.822 30.6271 23.6663C30.6271 25.5751 29.8587 27.3045 28.6144 28.562L28.5884 28.5882L28.5653 28.6112C27.3075 29.8573 25.5769 30.627 23.6664 30.627C21.769 30.627 20.0489 29.8678 18.7932 28.6365C18.777 28.6205 18.7607 28.6044 18.7445 28.5882C18.7292 28.573 18.714 28.5577 18.6989 28.5423C17.4661 27.2865 16.7057 25.5651 16.7057 23.6663C16.7057 27.5105 13.5893 30.627 9.74504 30.627C5.90075 30.627 2.78435 27.5105 2.78435 23.6663V16.7056H9.74504C5.90075 16.7056 2.78435 13.5891 2.78435 9.74487C2.78435 5.90059 5.90075 2.78418 9.74504 2.78418ZM15.3136 9.74487C15.3136 12.8203 12.8205 15.3134 9.74504 15.3134V4.17632C12.8205 4.17632 15.3136 6.66944 15.3136 9.74487ZM29.235 23.6663C29.235 20.5908 26.7419 18.0977 23.6664 18.0977C20.591 18.0977 18.0979 20.5908 18.0979 23.6663H29.235ZM4.17649 18.0977V23.6663C4.17649 26.7417 6.66961 29.2348 9.74504 29.2348C12.8205 29.2348 15.3136 26.7417 15.3136 23.6663V18.0977H4.17649ZM18.0979 15.3134V4.17632H23.6664C26.7419 4.17632 29.235 6.66944 29.235 9.74487C29.235 12.8203 26.7419 15.3134 23.6664 15.3134H18.0979Z" fill="#263238"/>
</g>
<defs>
<clipPath id="clip0_1302_1113">
<rect width="27.8428" height="27.8428" fill="white" transform="translate(2.78435 2.78418)"/>
</clipPath>
</defs>
</svg>
