<svg width="34" height="34" viewBox="0 0 34 34" fill="none" xmlns="http://www.w3.org/2000/svg">
<path d="M16.6987 6.96069C14.2129 6.96069 12.1892 9.00288 12.1892 11.4993C12.1892 13.0786 13.0001 14.473 14.2247 15.2858C12.7457 15.7803 11.4659 16.7046 10.5272 17.9138C10.0082 17.5146 9.42837 17.1936 8.80324 16.9636C9.7512 16.2598 10.3707 15.1293 10.3707 13.8587C10.3707 11.7415 8.65828 10.0082 6.55384 10.0082C4.44941 10.0082 2.73702 11.7415 2.73702 13.8587C2.73702 15.13 3.35701 16.2611 4.30576 16.9648C1.79394 17.8917 2.28882e-05 20.3184 2.28882e-05 23.1744V25.1806C0.000279979 25.3335 0.0614557 25.4801 0.169926 25.5878C0.278395 25.6957 0.425167 25.7559 0.578106 25.7554H9.37988C9.40121 25.7577 9.42255 25.759 9.44388 25.7587H23.954C23.9754 25.759 23.997 25.7577 24.018 25.7554H32.8205C33.1369 25.7541 33.3932 25.4973 33.3939 25.1806V23.1744C33.3939 20.3184 31.6031 17.8917 29.0926 16.9645C30.0414 16.2611 30.6613 15.1298 30.6613 13.8585C30.6613 11.7412 28.949 10.008 26.8445 10.008C24.7402 10.008 23.0277 11.7412 23.0277 13.8585C23.0277 15.129 23.6474 16.2597 24.5954 16.9633C23.969 17.1939 23.3888 17.5159 22.8691 17.9161C21.9309 16.7062 20.6529 15.7806 19.1739 15.2858C20.3982 14.473 21.2094 13.0786 21.2094 11.4993C21.2094 9.00288 19.1847 6.96069 16.6989 6.96069H16.6987ZM16.6987 8.11224C18.5579 8.11224 20.0567 9.6211 20.0567 11.4993C20.0567 13.3628 18.5813 14.857 16.7427 14.881C16.728 14.881 16.7136 14.8789 16.6987 14.8789C16.6838 14.8789 16.6697 14.881 16.6548 14.881C14.8162 14.8573 13.3417 13.3629 13.3417 11.4993C13.3417 9.62083 14.8393 8.11224 16.6985 8.11224H16.6987ZM6.55391 11.1597C8.02907 11.1597 9.21918 12.357 9.21918 13.8587C9.21918 15.3503 8.04447 16.5424 6.58319 16.5586C6.57342 16.5586 6.56391 16.5576 6.55389 16.5576C6.54412 16.5576 6.53461 16.5586 6.52459 16.5586C5.0633 16.5424 3.88859 15.35 3.88859 13.8587C3.88859 12.357 5.0787 11.1597 6.55387 11.1597H6.55391ZM26.8442 11.1597C28.3193 11.1597 29.5095 12.357 29.5095 13.8587C29.5095 15.3503 28.3347 16.5424 26.8735 16.5586C26.8637 16.5586 26.8542 16.5576 26.8442 16.5576C26.8344 16.5576 26.8249 16.5586 26.8149 16.5586C25.3536 16.5424 24.1789 15.35 24.1789 13.8587C24.1789 12.357 25.369 11.1597 26.8441 11.1597H26.8442ZM16.6546 16.0325C16.6693 16.0327 16.6837 16.0345 16.6986 16.0345C16.7132 16.0345 16.7276 16.0325 16.7425 16.0325C20.4298 16.0561 23.3807 19.0324 23.3807 22.7582L23.3805 24.6068H10.0172V22.7582C10.0172 19.0321 12.9673 16.0561 16.6541 16.0325H16.6546ZM6.50982 17.7115C6.52447 17.7117 6.53887 17.7135 6.55378 17.7135C6.56868 17.7135 6.58282 17.7115 6.59773 17.7115C7.84489 17.7215 8.98308 18.1515 9.88938 18.871C9.24086 20.0185 8.86582 21.3429 8.86582 22.7585V24.6027H1.15111V23.1744C1.15111 20.1464 3.53185 17.7351 6.50969 17.7112L6.50982 17.7115ZM26.8001 17.7115C26.815 17.7117 26.8291 17.7135 26.844 17.7135C26.859 17.7135 26.8731 17.7115 26.888 17.7115C29.8658 17.7351 32.2466 20.1467 32.2466 23.1746V24.6027H24.5279L24.5277 22.7585C24.5277 21.3437 24.1537 20.0202 23.5064 18.873C24.413 18.1526 25.5519 17.7215 26.8002 17.7115H26.8001Z" fill="#103E13"/>
</svg>
