<svg width="13" height="13" viewBox="0 0 13 13" fill="none" xmlns="http://www.w3.org/2000/svg">
<g clip-path="url(#clip0_1801_203)">
<path fill-rule="evenodd" clip-rule="evenodd" d="M11.8543 0.674954C11.9961 0.816763 12.0441 1.02727 11.9779 1.21656L8.32351 11.6576C8.2528 11.8596 8.06592 11.998 7.85205 12.0068C7.63817 12.0155 7.44064 11.8928 7.35371 11.6972L5.34705 7.18218L0.832063 5.17552C0.63646 5.08859 0.513745 4.89106 0.52247 4.67718C0.531196 4.46331 0.669594 4.27643 0.871628 4.20572L11.3127 0.551357C11.502 0.485106 11.7125 0.533145 11.8543 0.674954ZM6.36523 6.90229L7.77302 10.0698L10.2367 3.03087L6.36523 6.90229ZM9.49837 2.29257L2.45941 4.75621L5.62694 6.164L9.49837 2.29257Z" fill="white"/>
</g>
<defs>
<clipPath id="clip0_1801_203">
<rect width="12.5293" height="12.5293" fill="white"/>
</clipPath>
</defs>
</svg>
